# xmcd
#
# Track frame offsets:
#	150
#	14765
#	39777
#	56922
#	73852
#	90625
#	108097
#	159287
#	176435
#	194862
#	213995
#	232572
#	259245
#	277047
#	313807
#
# Disc length: 4442 seconds
#
# Revision: 1
# Processed by: cddbd v1.5PL3 Copyright (c) Steve Scherf et al.
# Submitted via: CDex 1.50Beta5
#
DISCID=d211580f
DTITLE=Orbital - Work 1989-2002 (Japan)
DYEAR=2002
DGENRE=Electronic
TTITLE0=Chime
TTITLE1=Choice
TTITLE2=Illuminate
TTITLE3=Satan Spawn
TTITLE4=Nothing Left
TTITLE5=Halcyon
TTITLE6=Impact
TTITLE7=Are We Here?
TTITLE8=Style
TTITLE9=The Box
TTITLE10=Frenetic
TTITLE11=Lush 3.1
TTITLE12=Funny Break(One Is Enough)
TTITLE13=Belfast
TTITLE14=Chime(Live Style Mix)
EXTD=
EXTT0=
EXTT1=
EXTT2=
EXTT3=
EXTT4=
EXTT5=
EXTT6=
EXTT7=
EXTT8=
EXTT9=
EXTT10=
EXTT11=
EXTT12=
EXTT13=
EXTT14=
PLAYORDER=
